<svg id="Layer_1" data-name="Layer 1" xmlns="http://www.w3.org/2000/svg" viewBox="0 0 400.67 173.87"><defs><style>.cls-1{fill:#ed1e24;}.cls-2{fill:#ffe300;}.cls-3{fill:#46c8f5;}.cls-4{fill:#ed1f8f;}</style></defs><path class="cls-1" d="M111.67,444.47H140.4q27.79,0,41.29,7t22.25,22.65q8.75,15.69,8.74,36.63a74.44,74.44,0,0,1-4.89,27.38,56.85,56.85,0,0,1-13.5,20.73,47.57,47.57,0,0,1-18.65,11.39q-10,3.15-34.8,3.15H111.67Zm24.08,23.66v81.32H147q16.63,0,24.13-3.86t12.26-13q4.77-9.12,4.77-22.46,0-20.52-11.35-31.84Q166.59,468.14,144,468.13Z" transform="translate(-111.67 -403.67)"/><path class="cls-2" d="M344.67,468.05l-17.32,16.36q-17.67-18.51-39.77-18.51-18.65,0-31.41,12.63T243.4,509.67a45.65,45.65,0,0,0,5.65,22.89,40.29,40.29,0,0,0,16,15.7A46.78,46.78,0,0,0,288,554a47.76,47.76,0,0,0,19.71-4q8.92-4,19.62-14.51l16.79,17.35q-14.42,14-27.24,19.34t-29.28,5.39q-30.35,0-49.66-19.06t-19.33-48.85q0-19.29,8.8-34.27a65.22,65.22,0,0,1,25.21-24.1A71.67,71.67,0,0,1,288,442.15a75.29,75.29,0,0,1,56.7,25.9Z" transform="translate(-111.67 -403.67)"/><path class="cls-3" d="M344.9,448.64h25L392.72,495l22.71-46.36h24.69l-35.8,73.08v55.82H380.87V521.72Z" transform="translate(-111.67 -403.67)"/><path class="cls-4" d="M449.43,448.64h62.9v23.92h-39V496h39v23.58h-39v58H449.43Z" transform="translate(-111.67 -403.67)"/><circle class="cls-3" cx="280.84" cy="26.16" r="26.16"/></svg>